<mxfile host="app.diagrams.net" agent="Mozilla/5.0 (Windows NT 10.0; Win64; x64) AppleWebKit/537.36 (KHTML, like Gecko) Chrome/129.0.0.0 Safari/537.36" version="24.7.16">
  <diagram name="PÃ¡gina-1" id="6QnJtLDzX8EP0Ryt80rn">
    <mxGraphModel dx="2074" dy="1201" grid="1" gridSize="10" guides="1" tooltips="1" connect="1" arrows="1" fold="1" page="1" pageScale="1" pageWidth="827" pageHeight="1169" math="0" shadow="0">
      <root>
        <mxCell id="0" />
        <mxCell id="1" parent="0" />
        <mxCell id="BXrmfhuKBbzsBrO9pLs4-1" value="Usuario" style="shape=umlActor;verticalLabelPosition=bottom;verticalAlign=top;html=1;outlineConnect=0;" vertex="1" parent="1">
          <mxGeometry x="750" y="30" width="30" height="60" as="geometry" />
        </mxCell>
        <mxCell id="BXrmfhuKBbzsBrO9pLs4-8" value="Microservicio clientems" style="rounded=0;whiteSpace=wrap;html=1;align=left;verticalAlign=bottom;fontStyle=1;fontSize=13;" vertex="1" parent="1">
          <mxGeometry x="20" y="170" width="710" height="330" as="geometry" />
        </mxCell>
        <mxCell id="BXrmfhuKBbzsBrO9pLs4-9" value="listarClientes" style="ellipse;whiteSpace=wrap;html=1;" vertex="1" parent="1">
          <mxGeometry x="50" y="220" width="120" height="80" as="geometry" />
        </mxCell>
        <mxCell id="BXrmfhuKBbzsBrO9pLs4-10" value="" style="endArrow=none;html=1;rounded=0;entryX=0.45;entryY=0.05;entryDx=0;entryDy=0;exitX=0.5;exitY=0;exitDx=0;exitDy=0;exitPerimeter=0;entryPerimeter=0;" edge="1" parent="1" source="BXrmfhuKBbzsBrO9pLs4-1" target="BXrmfhuKBbzsBrO9pLs4-9">
          <mxGeometry width="50" height="50" relative="1" as="geometry">
            <mxPoint x="100" y="550" as="sourcePoint" />
            <mxPoint x="150" y="500" as="targetPoint" />
          </mxGeometry>
        </mxCell>
        <mxCell id="BXrmfhuKBbzsBrO9pLs4-11" value="consultarCliente" style="ellipse;whiteSpace=wrap;html=1;" vertex="1" parent="1">
          <mxGeometry x="100" y="330" width="120" height="80" as="geometry" />
        </mxCell>
        <mxCell id="BXrmfhuKBbzsBrO9pLs4-12" value="agregarCliente" style="ellipse;whiteSpace=wrap;html=1;" vertex="1" parent="1">
          <mxGeometry x="270" y="350" width="120" height="80" as="geometry" />
        </mxCell>
        <mxCell id="BXrmfhuKBbzsBrO9pLs4-13" value="actualizarCliente" style="ellipse;whiteSpace=wrap;html=1;" vertex="1" parent="1">
          <mxGeometry x="414" y="310" width="120" height="80" as="geometry" />
        </mxCell>
        <mxCell id="BXrmfhuKBbzsBrO9pLs4-14" value="eliminarClientePorId" style="ellipse;whiteSpace=wrap;html=1;" vertex="1" parent="1">
          <mxGeometry x="570" y="260" width="120" height="80" as="geometry" />
        </mxCell>
        <mxCell id="BXrmfhuKBbzsBrO9pLs4-15" value="" style="endArrow=none;html=1;rounded=0;entryX=0.5;entryY=0.5;entryDx=0;entryDy=0;entryPerimeter=0;exitX=0.5;exitY=0;exitDx=0;exitDy=0;" edge="1" parent="1" source="BXrmfhuKBbzsBrO9pLs4-11" target="BXrmfhuKBbzsBrO9pLs4-1">
          <mxGeometry width="50" height="50" relative="1" as="geometry">
            <mxPoint x="390" y="540" as="sourcePoint" />
            <mxPoint x="440" y="490" as="targetPoint" />
          </mxGeometry>
        </mxCell>
        <mxCell id="BXrmfhuKBbzsBrO9pLs4-16" value="" style="endArrow=none;html=1;rounded=0;entryX=0;entryY=0;entryDx=0;entryDy=0;exitX=0;exitY=1;exitDx=0;exitDy=0;exitPerimeter=0;" edge="1" parent="1" source="BXrmfhuKBbzsBrO9pLs4-1" target="BXrmfhuKBbzsBrO9pLs4-12">
          <mxGeometry width="50" height="50" relative="1" as="geometry">
            <mxPoint x="430" y="110" as="sourcePoint" />
            <mxPoint x="90" y="610" as="targetPoint" />
          </mxGeometry>
        </mxCell>
        <mxCell id="BXrmfhuKBbzsBrO9pLs4-17" value="" style="endArrow=none;html=1;rounded=0;entryX=0;entryY=1;entryDx=0;entryDy=0;entryPerimeter=0;" edge="1" parent="1" source="BXrmfhuKBbzsBrO9pLs4-13" target="BXrmfhuKBbzsBrO9pLs4-1">
          <mxGeometry width="50" height="50" relative="1" as="geometry">
            <mxPoint x="390" y="540" as="sourcePoint" />
            <mxPoint x="440" y="490" as="targetPoint" />
          </mxGeometry>
        </mxCell>
        <mxCell id="BXrmfhuKBbzsBrO9pLs4-18" value="" style="endArrow=none;html=1;rounded=0;entryX=0;entryY=1;entryDx=0;entryDy=0;entryPerimeter=0;exitX=1;exitY=0.5;exitDx=0;exitDy=0;" edge="1" parent="1" source="BXrmfhuKBbzsBrO9pLs4-14" target="BXrmfhuKBbzsBrO9pLs4-1">
          <mxGeometry width="50" height="50" relative="1" as="geometry">
            <mxPoint x="390" y="540" as="sourcePoint" />
            <mxPoint x="440" y="490" as="targetPoint" />
          </mxGeometry>
        </mxCell>
        <mxCell id="BXrmfhuKBbzsBrO9pLs4-19" value="Microservicio accountms" style="rounded=0;whiteSpace=wrap;html=1;align=left;verticalAlign=bottom;fontStyle=1;fontSize=13;" vertex="1" parent="1">
          <mxGeometry x="810" y="170" width="590" height="330" as="geometry" />
        </mxCell>
        <mxCell id="BXrmfhuKBbzsBrO9pLs4-21" value="listarCuentas" style="ellipse;whiteSpace=wrap;html=1;" vertex="1" parent="1">
          <mxGeometry x="820" y="250" width="100" height="70" as="geometry" />
        </mxCell>
        <mxCell id="BXrmfhuKBbzsBrO9pLs4-22" value="agregarCuenta" style="ellipse;whiteSpace=wrap;html=1;" vertex="1" parent="1">
          <mxGeometry x="920" y="310" width="120" height="80" as="geometry" />
        </mxCell>
        <mxCell id="BXrmfhuKBbzsBrO9pLs4-23" value="consultarCuenta" style="ellipse;whiteSpace=wrap;html=1;" vertex="1" parent="1">
          <mxGeometry x="1030" y="220" width="120" height="80" as="geometry" />
        </mxCell>
        <mxCell id="BXrmfhuKBbzsBrO9pLs4-24" value="eliminarCuentaPorId" style="ellipse;whiteSpace=wrap;html=1;" vertex="1" parent="1">
          <mxGeometry x="1060" y="320" width="120" height="80" as="geometry" />
        </mxCell>
        <mxCell id="BXrmfhuKBbzsBrO9pLs4-25" value="depositar" style="ellipse;whiteSpace=wrap;html=1;" vertex="1" parent="1">
          <mxGeometry x="1250" y="180" width="120" height="80" as="geometry" />
        </mxCell>
        <mxCell id="BXrmfhuKBbzsBrO9pLs4-26" value="retirar" style="ellipse;whiteSpace=wrap;html=1;" vertex="1" parent="1">
          <mxGeometry x="1270" y="280" width="120" height="80" as="geometry" />
        </mxCell>
        <mxCell id="BXrmfhuKBbzsBrO9pLs4-27" value="" style="endArrow=none;html=1;rounded=0;exitX=0;exitY=0.5;exitDx=0;exitDy=0;entryX=1;entryY=1;entryDx=0;entryDy=0;entryPerimeter=0;" edge="1" parent="1" source="BXrmfhuKBbzsBrO9pLs4-21" target="BXrmfhuKBbzsBrO9pLs4-1">
          <mxGeometry width="50" height="50" relative="1" as="geometry">
            <mxPoint x="980" y="90" as="sourcePoint" />
            <mxPoint x="790" y="100" as="targetPoint" />
          </mxGeometry>
        </mxCell>
        <mxCell id="BXrmfhuKBbzsBrO9pLs4-28" value="" style="endArrow=none;html=1;rounded=0;entryX=1;entryY=0.3333333333333333;entryDx=0;entryDy=0;entryPerimeter=0;exitX=0;exitY=0.5;exitDx=0;exitDy=0;" edge="1" parent="1" source="BXrmfhuKBbzsBrO9pLs4-23" target="BXrmfhuKBbzsBrO9pLs4-1">
          <mxGeometry width="50" height="50" relative="1" as="geometry">
            <mxPoint x="920" y="110" as="sourcePoint" />
            <mxPoint x="970" y="60" as="targetPoint" />
          </mxGeometry>
        </mxCell>
        <mxCell id="BXrmfhuKBbzsBrO9pLs4-29" value="" style="endArrow=none;html=1;rounded=0;exitX=1;exitY=0.3333333333333333;exitDx=0;exitDy=0;exitPerimeter=0;entryX=0;entryY=0.5;entryDx=0;entryDy=0;" edge="1" parent="1" source="BXrmfhuKBbzsBrO9pLs4-1" target="BXrmfhuKBbzsBrO9pLs4-25">
          <mxGeometry width="50" height="50" relative="1" as="geometry">
            <mxPoint x="980" y="120" as="sourcePoint" />
            <mxPoint x="1030" y="70" as="targetPoint" />
          </mxGeometry>
        </mxCell>
        <mxCell id="BXrmfhuKBbzsBrO9pLs4-30" value="" style="endArrow=none;html=1;rounded=0;entryX=1;entryY=1;entryDx=0;entryDy=0;entryPerimeter=0;exitX=0.417;exitY=0.038;exitDx=0;exitDy=0;exitPerimeter=0;" edge="1" parent="1" source="BXrmfhuKBbzsBrO9pLs4-22" target="BXrmfhuKBbzsBrO9pLs4-1">
          <mxGeometry width="50" height="50" relative="1" as="geometry">
            <mxPoint x="1000" y="600" as="sourcePoint" />
            <mxPoint x="1050" y="550" as="targetPoint" />
          </mxGeometry>
        </mxCell>
        <mxCell id="BXrmfhuKBbzsBrO9pLs4-31" value="" style="endArrow=none;html=1;rounded=0;exitX=0;exitY=0;exitDx=0;exitDy=0;entryX=1;entryY=1;entryDx=0;entryDy=0;entryPerimeter=0;" edge="1" parent="1" source="BXrmfhuKBbzsBrO9pLs4-24" target="BXrmfhuKBbzsBrO9pLs4-1">
          <mxGeometry width="50" height="50" relative="1" as="geometry">
            <mxPoint x="390" y="540" as="sourcePoint" />
            <mxPoint x="820" y="100" as="targetPoint" />
          </mxGeometry>
        </mxCell>
        <mxCell id="BXrmfhuKBbzsBrO9pLs4-32" value="" style="endArrow=none;html=1;rounded=0;exitX=0;exitY=0;exitDx=0;exitDy=0;entryX=1;entryY=0.3333333333333333;entryDx=0;entryDy=0;entryPerimeter=0;" edge="1" parent="1" source="BXrmfhuKBbzsBrO9pLs4-26" target="BXrmfhuKBbzsBrO9pLs4-1">
          <mxGeometry width="50" height="50" relative="1" as="geometry">
            <mxPoint x="1150" y="590" as="sourcePoint" />
            <mxPoint x="1200" y="540" as="targetPoint" />
          </mxGeometry>
        </mxCell>
      </root>
    </mxGraphModel>
  </diagram>
</mxfile>
